<?xml version="1.0" encoding="UTF-8"?>
<svg version="1.1" xmlns="http://www.w3.org/2000/svg" width="1024" height="1024">
<path d="M0 0 C46.43687147 -1.79110508 92.48804904 15.88909747 126.50878906 47.15869141 C132.9078508 53.11246474 139.14497755 59.12154807 144.82519531 65.77587891 C146.28437639 67.47206983 147.77617062 69.14035666 149.28613281 70.79150391 C166.22215369 89.59453639 177.14406464 113.54933984 185.82128906 137.09619141 C186.1401709 137.95986328 186.45905273 138.82353516 186.78759766 139.71337891 C191.84714523 153.7108548 194.59694394 167.65631571 196.4777832 182.40454102 C196.76006637 184.61646137 197.07693426 186.8239412 197.40332031 189.02978516 C204.19869165 245.09159867 186.39885572 305.35508927 163.13378906 355.59619141 C162.61268555 356.72259033 162.09158203 357.84898926 161.5546875 359.00952148 C156.84247178 369.14164569 151.93000235 379.15866413 146.82128906 389.09619141 C146.46583008 389.79309082 146.11037109 390.48999023 145.74414062 391.20800781 C141.82497109 398.86786827 137.57963915 406.09637012 132.69238281 413.19384766 C130.80275355 416.12494274 129.26773298 419.07922595 127.75878906 422.22119141 C124.27610066 429.47203446 119.63823765 435.69299691 114.82128906 442.09619141 C109.65180664 441.60145578 106.04631459 438.93769805 101.82128906 436.15869141 C95.61321904 432.07172423 95.61321904 432.07172423 88.82128906 429.09619141 C89.3781815 425.41064908 90.30186411 422.96351562 92.41113281 419.90087891 C92.94327393 419.11229492 93.47541504 418.32371094 94.02368164 417.51123047 C94.88255981 416.25391113 94.88255981 416.25391113 95.75878906 414.97119141 C102.17859169 405.3383989 107.6382915 395.43475116 112.82128906 385.09619141 C113.50156926 383.75989253 114.18253053 382.42394011 114.86425781 381.08837891 C116.52467699 377.81982749 118.15422846 374.53713751 119.76757812 371.24511719 C120.50080715 369.74977847 121.2373876 368.25608038 121.9765625 366.76367188 C139.24277491 331.8208093 153.56827079 293.883386 158.82128906 255.09619141 C159.08926407 253.2354777 159.35750835 251.37480276 159.62597656 249.51416016 C164.06322516 217.97958991 165.01491443 184.91808875 155.82128906 154.09619141 C155.48170166 152.90799805 155.48170166 152.90799805 155.13525391 151.69580078 C147.14698211 124.12967209 131.34457672 95.28439551 108.84082031 76.76806641 C106.45859029 74.79593014 104.2143193 72.69844028 101.94628906 70.59619141 C70.40989903 42.3090052 29.14574786 33.04335652 -12.17871094 35.09619141 C-18.3027016 35.59394628 -24.20596478 36.68790408 -30.17871094 38.09619141 C-30.93619629 38.26248047 -31.69368164 38.42876953 -32.47412109 38.60009766 C-53.34432979 43.22365158 -73.78325578 52.19858517 -90.17871094 66.09619141 C-90.70996582 66.5401123 -91.2412207 66.9840332 -91.78857422 67.44140625 C-95.96909706 70.93652181 -100.09386431 74.48979659 -104.17871094 78.09619141 C-104.91089844 78.74072266 -105.64308594 79.38525391 -106.39746094 80.04931641 C-116.48962979 89.54279728 -125.1542041 101.66940337 -131.17871094 114.09619141 C-131.57960938 114.82966797 -131.98050781 115.56314453 -132.39355469 116.31884766 C-143.72432117 137.42375776 -148.40531762 160.53328257 -148.42871094 184.28369141 C-148.42971802 184.99217224 -148.4307251 185.70065308 -148.4317627 186.43060303 C-148.42017739 198.51782127 -147.64333568 210.24082667 -145.17871094 222.09619141 C-144.93507813 223.30017578 -144.69144531 224.50416016 -144.44042969 225.74462891 C-140.37706836 242.26768112 -131.79686218 257.90442729 -121.17871094 271.09619141 C-120.73382324 271.65773926 -120.28893555 272.21928711 -119.83056641 272.79785156 C-113.87219487 280.27174495 -107.58742358 287.01407678 -100.17871094 293.09619141 C-99.27765625 293.84513672 -98.37660156 294.59408203 -97.44824219 295.36572266 C-71.07985413 316.25404086 -33.94613439 324.99034929 -0.85839844 321.87792969 C3.46156336 321.28476891 7.6250289 320.26311581 11.82128906 319.09619141 C12.47532715 318.91926758 13.12936523 318.74234375 13.80322266 318.56005859 C35.59902695 312.58054157 54.74144237 301.01524947 66.51342773 281.1809082 C76.42952479 263.70442673 78.30049341 246.87668183 77.82128906 227.09619141 C77.4178125 227.50869141 77.01433594 227.92119141 76.59863281 228.34619141 C57.26227187 246.73831392 24.18176986 255.64102613 -2.03417969 255.31103516 C-22.46930182 253.91484669 -45.12822182 245.48612404 -59.17871094 230.09619141 C-76.56640594 210.03115236 -81.91166551 187.70170721 -80.50097656 161.53271484 C-78.26285008 137.66614794 -64.1507124 115.50846253 -46.17871094 100.09619141 C-28.89196465 86.26679437 -8.41307372 79.04378869 13.82128906 81.09619141 C18.19190264 82.2658808 20.99198349 84.32908375 24.32128906 87.40869141 C26.29377263 90.94272446 26.31254968 93.09592641 25.82128906 97.09619141 C24.46313653 100.36810433 23.322334 102.59514647 20.82128906 105.09619141 C18.44213867 105.62695312 18.44213867 105.62695312 15.47363281 106.02587891 C14.39275391 106.18185547 13.311875 106.33783203 12.19824219 106.49853516 C9.93316059 106.80980702 7.66754188 107.11719888 5.40136719 107.42041016 C-8.50078541 109.4428404 -21.45256658 115.72471982 -30.17871094 127.09619141 C-40.67447823 143.96370853 -44.38210214 163.23325152 -40.95605469 182.82666016 C-37.4977081 197.37257016 -28.88186818 210.05645459 -16.17871094 218.09619141 C3.60608144 228.59260093 29.22617774 227.11925773 50.13378906 220.78369141 C56.13734844 218.85810165 61.52514301 216.51582528 66.82128906 213.09619141 C67.80613281 212.47873047 68.79097656 211.86126953 69.80566406 211.22509766 C72.48910367 209.53262369 75.15958187 207.82256972 77.82128906 206.09619141 C74.04042659 204.83590391 70.7243971 205.24019598 66.82128906 205.53369141 C40.17386494 207.28074064 40.17386494 207.28074064 28.82128906 198.09619141 C20.70977025 190.85778746 13.68113307 182.46120748 7.68139648 173.41064453 C7.14471848 172.60212036 6.60804047 171.79359619 6.05509949 170.96057129 C5.64794205 170.34532593 5.24078461 169.73008057 4.82128906 169.09619141 C15.75177776 168.93943221 26.68235092 168.79137863 37.61309147 168.65322781 C42.69354087 168.58876954 47.77392452 168.52175917 52.85424805 168.44799805 C79.53953215 168.06283719 106.14791927 168.16726237 132.82128906 169.09619141 C130.32359197 171.60222805 127.82252385 174.09501685 125.25878906 176.53369141 C118.60844845 183.52507513 118.25031146 188.03370385 118.31738281 197.58837891 C118.30796158 198.807117 118.29854034 200.0258551 118.28883362 201.28152466 C118.26019655 205.17825065 118.25710233 209.07436884 118.25878906 212.97119141 C118.22864766 245.02556381 118.22864766 245.02556381 114.82128906 258.09619141 C114.55276123 259.13026123 114.2842334 260.16433105 114.00756836 261.22973633 C105.67371525 291.04629001 83.20600296 317.1158475 58.82128906 335.09619141 C58.11617187 335.61955078 57.41105469 336.14291016 56.68457031 336.68212891 C45.72807636 344.14490353 31.54046777 347.86937574 18.82128906 351.09619141 C17.84482422 351.3461084 17.84482422 351.3461084 16.84863281 351.60107422 C-24.91622204 361.7891676 -74.88164742 348.65819911 -111.17871094 327.09619141 C-135.73754223 311.77132951 -154.91723124 288.62160587 -168.17871094 263.09619141 C-168.78199219 261.95408203 -169.38527344 260.81197266 -170.00683594 259.63525391 C-178.0190809 243.87423942 -181.85758453 226.52196127 -184.17871094 209.09619141 C-184.31019531 208.12939453 -184.44167969 207.16259766 -184.57714844 206.16650391 C-190.00981097 157.85985595 -174.09884316 110.9992294 -144.80761719 73.02197266 C-124.11798427 47.16915149 -99.56522561 28.29517594 -69.17871094 15.09619141 C-67.98632812 14.57283203 -66.79394531 14.04947266 -65.56542969 13.51025391 C-44.7141394 5.0443165 -22.39086206 0.98857011 0 0 Z " fill="currentColor" transform="translate(510.1787109375,182.90380859375)"/>
<path d="M0 0 C2.46943529 3.70415293 2.46913089 5.62144505 2 10 C0.23061796 12.28545181 -1.07913902 12.84903918 -3.90625 13.3125 C-7.46859811 13.5251775 -9.47311963 13.32126852 -12.5625 11.4375 C-14 9 -14 9 -13.9375 5.4375 C-12.66666667 0.77777778 -12.66666667 0.77777778 -10 -1 C-6.30087597 -2.65822801 -3.60160847 -1.56591673 0 0 Z " fill="#000000" transform="translate(328,507)"/>
<path d="M0 0 C0.6614502 0.02658691 1.32290039 0.05317383 2.00439453 0.08056641 C32.78191756 1.50174021 63.83572775 10.59374785 93 20 C93.95197266 20.30228516 94.90394531 20.60457031 95.88476562 20.91601562 C115.26103835 27.16594501 133.57519054 36.97517991 150.91796875 47.54296875 C153.8426455 49.32504786 156.80344812 51.01881113 159.80078125 52.67578125 C169.84456878 58.25632355 178.54583687 64.22410784 187 72 C192.09742548 76.6102995 197.09453187 80.48132524 203 84 C205.00615134 85.32405988 207.00669158 86.65668346 209 88 C210.11375 88.70125 211.2275 89.4025 212.375 90.125 C213.24125 90.74375 214.1075 91.3625 215 92 C215 92.66 215 93.32 215 94 C215.7425 93.938125 216.485 93.87625 217.25 93.8125 C220 94 220 94 221.734375 95.375 C224.68281789 97.48974525 227.51022347 98.19706138 231 99.1875 C237.49913875 101.09342127 243.6919298 103.4496743 249.9375 106.0625 C268.55243761 113.76276279 291.37382808 119.36557586 310.91796875 111.8828125 C321.32804764 106.79982226 327.88755632 97.67960181 332 87 C335.08141185 76.49715962 336.12018324 64.13429952 331.17578125 54.05859375 C330.78777344 53.37925781 330.39976562 52.69992187 330 52 C329.68417969 51.39285156 329.36835937 50.78570313 329.04296875 50.16015625 C323.19120468 40.49488301 311.94671604 35.12082398 301.93359375 30.80078125 C298.33753936 28.59334973 297.41221201 26.94060534 296 23 C295.27055215 18.89289143 295.17911623 15.09867843 296 11 C298.68846475 7.60178055 301.97586559 6.34137814 306 5 C320.93693753 3.72208529 329.71504707 8.59332747 341 18 C352.83157541 27.98696759 362.85817665 44.74515445 364.20703125 60.40332031 C365.14528895 85.57012843 357.69227791 105.16486532 341 124 C332.37483003 133.03629741 319.66601718 141.43353144 307 143 C305.96101563 143.13148438 304.92203125 143.26296875 303.8515625 143.3984375 C270.97165952 146.55322563 239.26007521 133.45189091 210 120 C209.23010742 119.649375 208.46021484 119.29875 207.66699219 118.9375 C195.50716075 113.34627082 185.14803086 106.16628253 174.75537109 97.78613281 C168.14805045 92.47454543 161.35991479 88.0323643 153.88232422 84.015625 C151.23316176 82.58624551 148.60791789 81.11510013 145.98022461 79.64672852 C143.73222028 78.39271731 141.47962484 77.1472419 139.2265625 75.90234375 C135.33475911 73.74808838 131.45849085 71.56756697 127.5859375 69.37890625 C99.52907276 53.56416072 70.25532887 38.60402206 38.35742188 32.45556641 C36.08949043 32.01729382 33.83559115 31.53181791 31.578125 31.04296875 C3.33823223 25.36195744 -28.82431204 27.03260208 -53.8125 42.375 C-55.55451675 43.56473292 -57.28412109 44.77287067 -59 46 C-59.85207031 46.57105469 -60.70414062 47.14210938 -61.58203125 47.73046875 C-69.17446755 53.20028845 -73.40722521 60.03101704 -78 68 C-78.43183594 68.68707031 -78.86367188 69.37414062 -79.30859375 70.08203125 C-90.25636212 88.95308723 -88.65966258 115.67741207 -83.49609375 135.98144531 C-77.34343522 158.52979944 -62.12466694 178.11311363 -42.09619141 190.14355469 C-13.73948771 206.10617248 20.57822231 207.60318409 51.41064453 199.05029297 C89.44743522 187.9442851 125.62211389 164.62300245 151 134 C152.9935981 131.66117438 154.99742322 129.33113888 157 127 C158.04315062 125.78401017 159.08612358 124.56786789 160.12890625 123.3515625 C160.62277832 122.77567383 161.11665039 122.19978516 161.62548828 121.60644531 C162.80498667 120.22791967 163.97919449 118.84487038 165.15234375 117.4609375 C172.99260927 108.29966444 172.99260927 108.29966444 177.171875 107.67578125 C181.10602493 108.12679568 184.19969546 109.82432165 187.625 111.6875 C188.29273438 112.02716797 188.96046875 112.36683594 189.6484375 112.71679688 C193.62869901 114.84623678 196.41571066 116.57032702 198 121 C198.07676257 124.85731903 198.10969324 127.45808591 195.83789062 130.61474609 C194.21712316 132.24889506 192.52107032 133.7175436 190.75 135.1875 C189.38933692 136.38360758 188.03282111 137.58444356 186.6796875 138.7890625 C185.93686523 139.44680664 185.19404297 140.10455078 184.42871094 140.78222656 C179.75577101 145.04931405 175.33008377 149.57058775 170.875 154.0625 C169.97491211 154.96701904 169.07482422 155.87153809 168.14746094 156.8034668 C165.76318323 159.20054148 163.38106299 161.59973268 161 164 C147.2388606 177.85764108 132.37613616 189.37822608 116 200 C114.97261719 200.70511719 113.94523438 201.41023437 112.88671875 202.13671875 C76.636591 226.76884019 30.34331075 238.52030366 -13 231 C-35.69367848 226.42838153 -55.47623383 217.2031316 -73 202 C-73.85207031 201.26910156 -74.70414062 200.53820312 -75.58203125 199.78515625 C-80.83423904 195.17864717 -85.60325012 190.42577644 -90 185 C-90.77085937 184.06671875 -91.54171875 183.1334375 -92.3359375 182.171875 C-112.50122945 157.2555775 -120.76562295 127.74101325 -117.53125 95.91796875 C-113.9990127 66.60068241 -100.01423657 40.82367155 -76.7109375 22.328125 C-54.77120583 5.64416821 -27.33423685 -1.45738633 0 0 Z " fill="#000000" transform="translate(396,540)"/>
<path d="M0 0 C3.51817791 2.47871625 5.28172376 4.90596185 6.75 8.9375 C7.21341108 12.77719178 7.08657828 15.11475309 5.625 18.6875 C2.4042967 22.55234395 -0.81777703 23.75847213 -5.75 24.375 C-10.93123986 23.72734502 -13.86615904 21.64423718 -17.125 17.625 C-19.08787025 12.93592107 -18.77155675 8.80697142 -17 4.125 C-15.25 0.9375 -15.25 0.9375 -13.5625 -0.5 C-8.69452515 -1.68410199 -4.695004 -1.53490515 0 0 Z " fill="#000000" transform="translate(597.25,752.0625)"/>
</svg>
